<svg width="24" height="24" viewBox="0 0 24 24" fill="none" xmlns="http://www.w3.org/2000/svg">
<rect width="16" height="16" transform="translate(4 5)" fill="white"/>
<path d="M6.7039 21.5433L7.08658 20.6194L7.08658 20.6194L6.7039 21.5433ZM3.45672 18.2961L4.3806 17.9134L4.3806 17.9134L3.45672 18.2961ZM20.5433 18.2961L19.6194 17.9134L19.6194 17.9134L20.5433 18.2961ZM17.2961 21.5433L16.9134 20.6194L16.9134 20.6194L17.2961 21.5433ZM17.2961 4.45672L16.9134 5.3806L17.2961 4.45672ZM20.5433 7.7039L19.6194 8.08658L19.6194 8.08658L20.5433 7.7039ZM6.7039 4.45672L7.08658 5.3806L6.7039 4.45672ZM3.45672 7.7039L4.3806 8.08658L4.3806 8.08658L3.45672 7.7039ZM9 2C9 1.44772 8.55228 1 8 1C7.44772 1 7 1.44772 7 2H9ZM7 6C7 6.55228 7.44772 7 8 7C8.55228 7 9 6.55228 9 6H7ZM17 2C17 1.44772 16.5523 1 16 1C15.4477 1 15 1.44772 15 2H17ZM15 6C15 6.55228 15.4477 7 16 7C16.5523 7 17 6.55228 17 6H15ZM3.0403 10L2.04161 9.94891L3.0403 10ZM8.01 15C8.56228 15 9.01 14.5523 9.01 14C9.01 13.4477 8.56228 13 8.01 13V15ZM8 13C7.44772 13 7 13.4477 7 14C7 14.5523 7.44772 15 8 15V13ZM8.01 19C8.56228 19 9.01 18.5523 9.01 18C9.01 17.4477 8.56228 17 8.01 17V19ZM8 17C7.44772 17 7 17.4477 7 18C7 18.5523 7.44772 19 8 19V17ZM12.01 15C12.5623 15 13.01 14.5523 13.01 14C13.01 13.4477 12.5623 13 12.01 13V15ZM12 13C11.4477 13 11 13.4477 11 14C11 14.5523 11.4477 15 12 15V13ZM12.01 19C12.5623 19 13.01 18.5523 13.01 18C13.01 17.4477 12.5623 17 12.01 17V19ZM12 17C11.4477 17 11 17.4477 11 18C11 18.5523 11.4477 19 12 19V17ZM16.01 15C16.5623 15 17.01 14.5523 17.01 14C17.01 13.4477 16.5623 13 16.01 13V15ZM16 13C15.4477 13 15 13.4477 15 14C15 14.5523 15.4477 15 16 15V13ZM16.01 19C16.5623 19 17.01 18.5523 17.01 18C17.01 17.4477 16.5623 17 16.01 17V19ZM16 17C15.4477 17 15 17.4477 15 18C15 18.5523 15.4477 19 16 19V17ZM12 21C10.5885 21 9.57994 20.9995 8.78514 20.9452C7.99931 20.8916 7.49574 20.7889 7.08658 20.6194L6.32122 22.4672C7.01469 22.7544 7.76134 22.88 8.649 22.9406C9.52767 23.0005 10.6159 23 12 23V21ZM2 13C2 14.3841 1.99946 15.4723 2.05941 16.351C2.11997 17.2387 2.2456 17.9853 2.53284 18.6788L4.3806 17.9134C4.21112 17.5043 4.10839 17.0007 4.05477 16.2149C4.00054 15.4201 4 14.4115 4 13H2ZM7.08658 20.6194C5.86144 20.1119 4.88807 19.1386 4.3806 17.9134L2.53284 18.6788C3.2433 20.394 4.60602 21.7567 6.32122 22.4672L7.08658 20.6194ZM20 13C20 14.4115 19.9995 15.4201 19.9452 16.2149C19.8916 17.0007 19.7889 17.5043 19.6194 17.9134L21.4672 18.6788C21.7544 17.9853 21.88 17.2387 21.9406 16.351C22.0005 15.4723 22 14.3841 22 13H20ZM12 23C13.3841 23 14.4723 23.0005 15.351 22.9406C16.2387 22.88 16.9853 22.7544 17.6788 22.4672L16.9134 20.6194C16.5043 20.7889 16.0007 20.8916 15.2149 20.9452C14.4201 20.9995 13.4115 21 12 21V23ZM19.6194 17.9134C19.1119 19.1386 18.1386 20.1119 16.9134 20.6194L17.6788 22.4672C19.394 21.7567 20.7567 20.394 21.4672 18.6788L19.6194 17.9134ZM16.9134 5.3806C18.1386 5.88807 19.1119 6.86144 19.6194 8.08658L21.4672 7.32122C20.7567 5.60602 19.394 4.2433 17.6788 3.53284L16.9134 5.3806ZM6.32122 3.53284C4.60602 4.2433 3.2433 5.60602 2.53284 7.32122L4.3806 8.08658C4.88807 6.86144 5.86144 5.88807 7.08658 5.3806L6.32122 3.53284ZM22 13C22 11.7651 22.0003 10.7681 21.9584 9.94891L19.961 10.0511C19.9997 10.8076 20 11.7457 20 13H22ZM21.9584 9.94891C21.906 8.92567 21.7853 8.08933 21.4672 7.32122L19.6194 8.08658C19.808 8.54195 19.9129 9.11081 19.961 10.0511L21.9584 9.94891ZM20.9597 9L3.0403 9L3.0403 11L20.9597 11L20.9597 9ZM4 13C4 11.7457 4.0003 10.8076 4.039 10.0511L2.04161 9.94891C1.9997 10.7681 2 11.7651 2 13H4ZM4.039 10.0511C4.0871 9.11081 4.19198 8.54195 4.3806 8.08658L2.53284 7.32122C2.21468 8.08933 2.09395 8.92567 2.04161 9.94891L4.039 10.0511ZM7 2V4.12777H9V2H7ZM7 4.12777V6H9V4.12777H7ZM12 3C10.2024 3 8.88995 2.99776 7.86546 3.13687L8.13454 5.11868C8.99217 5.00224 10.1407 5 12 5V3ZM7.86546 3.13687C7.30595 3.21283 6.80149 3.33391 6.32122 3.53284L7.08658 5.3806C7.36926 5.26351 7.69843 5.17789 8.13454 5.11868L7.86546 3.13687ZM15 2V4.12777H17V2H15ZM15 4.12777V6H17V4.12777H15ZM12 5C13.8593 5 15.0078 5.00224 15.8655 5.11868L16.1345 3.13687C15.1101 2.99776 13.7976 3 12 3V5ZM15.8655 5.11868C16.3016 5.17789 16.6307 5.26351 16.9134 5.3806L17.6788 3.53284C17.1985 3.33391 16.6941 3.21283 16.1345 3.13687L15.8655 5.11868ZM8.01 13H8V15H8.01V13ZM8.01 17H8V19H8.01V17ZM12.01 13H12V15H12.01V13ZM12.01 17H12V19H12.01V17ZM16.01 13H16V15H16.01V13ZM16.01 17H16V19H16.01V17Z" fill="#60A5FA"/>
</svg>
